<?xml version="1.0" encoding="UTF-8"?><svg id="Layer_1" xmlns="http://www.w3.org/2000/svg" viewBox="0 0 1111 207.16"><defs><style>.cls-1{fill:#222;}</style></defs><g><path class="cls-1" d="M65.38,170.37l-2.67,19.01c-.33,2.33-1.81,3.09-3.24,3.09s-2.75-.76-2.42-3.09l2.67-19.01c.33-2.33,1.77-3.09,3.29-3.09s2.7,.76,2.37,3.09Z"/><path class="cls-1" d="M140.49,167.56h-2.13l-3.46,24.63h2.13c1.72,0,3.53-.76,3.97-3.9l2.38-16.88c.42-3.04-1.13-3.85-2.89-3.85Zm30.56-.28c-1.52,0-2.96,.76-3.29,3.09l-2.67,19.01c-.33,2.33,.95,3.09,2.42,3.09s2.91-.76,3.24-3.09l2.67-19.01c.33-2.33-.9-3.09-2.37-3.09Zm0,0c-1.52,0-2.96,.76-3.29,3.09l-2.67,19.01c-.33,2.33,.95,3.09,2.42,3.09s2.91-.76,3.24-3.09l2.67-19.01c.33-2.33-.9-3.09-2.37-3.09Zm-30.56,.28h-2.13l-3.46,24.63h2.13c1.72,0,3.53-.76,3.97-3.9l2.38-16.88c.42-3.04-1.13-3.85-2.89-3.85Zm0,0h-2.13l-3.46,24.63h2.13c1.72,0,3.53-.76,3.97-3.9l2.38-16.88c.42-3.04-1.13-3.85-2.89-3.85Zm30.56-.28c-1.52,0-2.96,.76-3.29,3.09l-2.67,19.01c-.33,2.33,.95,3.09,2.42,3.09s2.91-.76,3.24-3.09l2.67-19.01c.33-2.33-.9-3.09-2.37-3.09Zm0,0c-1.52,0-2.96,.76-3.29,3.09l-2.67,19.01c-.33,2.33,.95,3.09,2.42,3.09s2.91-.76,3.24-3.09l2.67-19.01c.33-2.33-.9-3.09-2.37-3.09Zm-30.56,.28h-2.13l-3.46,24.63h2.13c1.72,0,3.53-.76,3.97-3.9l2.38-16.88c.42-3.04-1.13-3.85-2.89-3.85Zm0,0h-2.13l-3.46,24.63h2.13c1.72,0,3.53-.76,3.97-3.9l2.38-16.88c.42-3.04-1.13-3.85-2.89-3.85Zm30.56-.28c-1.52,0-2.96,.76-3.29,3.09l-2.67,19.01c-.33,2.33,.95,3.09,2.42,3.09s2.91-.76,3.24-3.09l2.67-19.01c.33-2.33-.9-3.09-2.37-3.09Zm0,0c-1.52,0-2.96,.76-3.29,3.09l-2.67,19.01c-.33,2.33,.95,3.09,2.42,3.09s2.91-.76,3.24-3.09l2.67-19.01c.33-2.33-.9-3.09-2.37-3.09Zm-30.56,.28h-2.13l-3.46,24.63h2.13c1.72,0,3.53-.76,3.97-3.9l2.38-16.88c.42-3.04-1.13-3.85-2.89-3.85Zm0,0h-2.13l-3.46,24.63h2.13c1.72,0,3.53-.76,3.97-3.9l2.38-16.88c.42-3.04-1.13-3.85-2.89-3.85Zm30.56-.28c-1.52,0-2.96,.76-3.29,3.09l-2.67,19.01c-.33,2.33,.95,3.09,2.42,3.09s2.91-.76,3.24-3.09l2.67-19.01c.33-2.33-.9-3.09-2.37-3.09Zm0,0c-1.52,0-2.96,.76-3.29,3.09l-2.67,19.01c-.33,2.33,.95,3.09,2.42,3.09s2.91-.76,3.24-3.09l2.67-19.01c.33-2.33-.9-3.09-2.37-3.09Zm-30.56,.28h-2.13l-3.46,24.63h2.13c1.72,0,3.53-.76,3.97-3.9l2.38-16.88c.42-3.04-1.13-3.85-2.89-3.85Zm0,0h-2.13l-3.46,24.63h2.13c1.72,0,3.53-.76,3.97-3.9l2.38-16.88c.42-3.04-1.13-3.85-2.89-3.85Zm30.56-.28c-1.52,0-2.96,.76-3.29,3.09l-2.67,19.01c-.33,2.33,.95,3.09,2.42,3.09s2.91-.76,3.24-3.09l2.67-19.01c.33-2.33-.9-3.09-2.37-3.09Zm0,0c-1.52,0-2.96,.76-3.29,3.09l-2.67,19.01c-.33,2.33,.95,3.09,2.42,3.09s2.91-.76,3.24-3.09l2.67-19.01c.33-2.33-.9-3.09-2.37-3.09Zm-30.56,.28h-2.13l-3.46,24.63h2.13c1.72,0,3.53-.76,3.97-3.9l2.38-16.88c.42-3.04-1.13-3.85-2.89-3.85Zm0,0h-2.13l-3.46,24.63h2.13c1.72,0,3.53-.76,3.97-3.9l2.38-16.88c.42-3.04-1.13-3.85-2.89-3.85Zm30.56-.28c-1.52,0-2.96,.76-3.29,3.09l-2.67,19.01c-.33,2.33,.95,3.09,2.42,3.09s2.91-.76,3.24-3.09l2.67-19.01c.33-2.33-.9-3.09-2.37-3.09Zm285.54,3.99l-4.51,14.78h4.81l-.3-14.78Zm0,0l-4.51,14.78h4.81l-.3-14.78Zm-285.54-3.99c-1.52,0-2.96,.76-3.29,3.09l-2.67,19.01c-.33,2.33,.95,3.09,2.42,3.09s2.91-.76,3.24-3.09l2.67-19.01c.33-2.33-.9-3.09-2.37-3.09Zm-30.56,.28h-2.13l-3.46,24.63h2.13c1.72,0,3.53-.76,3.97-3.9l2.38-16.88c.42-3.04-1.13-3.85-2.89-3.85Zm0,0h-2.13l-3.46,24.63h2.13c1.72,0,3.53-.76,3.97-3.9l2.38-16.88c.42-3.04-1.13-3.85-2.89-3.85Zm30.56-.28c-1.52,0-2.96,.76-3.29,3.09l-2.67,19.01c-.33,2.33,.95,3.09,2.42,3.09s2.91-.76,3.24-3.09l2.67-19.01c.33-2.33-.9-3.09-2.37-3.09Zm285.54,3.99l-4.51,14.78h4.81l-.3-14.78Zm0,0l-4.51,14.78h4.81l-.3-14.78Zm-285.54-3.99c-1.52,0-2.96,.76-3.29,3.09l-2.67,19.01c-.33,2.33,.95,3.09,2.42,3.09s2.91-.76,3.24-3.09l2.67-19.01c.33-2.33-.9-3.09-2.37-3.09Zm-30.56,.28h-2.13l-3.46,24.63h2.13c1.72,0,3.53-.76,3.97-3.9l2.38-16.88c.42-3.04-1.13-3.85-2.89-3.85Zm0,0h-2.13l-3.46,24.63h2.13c1.72,0,3.53-.76,3.97-3.9l2.38-16.88c.42-3.04-1.13-3.85-2.89-3.85Zm30.56-.28c-1.52,0-2.96,.76-3.29,3.09l-2.67,19.01c-.33,2.33,.95,3.09,2.42,3.09s2.91-.76,3.24-3.09l2.67-19.01c.33-2.33-.9-3.09-2.37-3.09Zm285.54,3.99l-4.51,14.78h4.81l-.3-14.78Zm128.32-3.99c-1.52,0-2.95,.76-3.28,3.09l-2.67,19.01c-.33,2.33,.94,3.09,2.41,3.09s2.92-.76,3.24-3.09l2.68-19.01c.32-2.33-.9-3.09-2.38-3.09Zm0,0c-1.52,0-2.95,.76-3.28,3.09l-2.67,19.01c-.33,2.33,.94,3.09,2.41,3.09s2.92-.76,3.24-3.09l2.68-19.01c.32-2.33-.9-3.09-2.38-3.09Zm-128.32,3.99l-4.51,14.78h4.81l-.3-14.78Zm-285.54-3.99c-1.52,0-2.96,.76-3.29,3.09l-2.67,19.01c-.33,2.33,.95,3.09,2.42,3.09s2.91-.76,3.24-3.09l2.67-19.01c.33-2.33-.9-3.09-2.37-3.09Zm-30.56,.28h-2.13l-3.46,24.63h2.13c1.72,0,3.53-.76,3.97-3.9l2.38-16.88c.42-3.04-1.13-3.85-2.89-3.85Zm0,0h-2.13l-3.46,24.63h2.13c1.72,0,3.53-.76,3.97-3.9l2.38-16.88c.42-3.04-1.13-3.85-2.89-3.85Zm30.56-.28c-1.52,0-2.96,.76-3.29,3.09l-2.67,19.01c-.33,2.33,.95,3.09,2.42,3.09s2.91-.76,3.24-3.09l2.67-19.01c.33-2.33-.9-3.09-2.37-3.09Zm285.54,3.99l-4.51,14.78h4.81l-.3-14.78Zm128.32-3.99c-1.52,0-2.95,.76-3.28,3.09l-2.67,19.01c-.33,2.33,.94,3.09,2.41,3.09s2.92-.76,3.24-3.09l2.68-19.01c.32-2.33-.9-3.09-2.38-3.09Zm0,0c-1.52,0-2.95,.76-3.28,3.09l-2.67,19.01c-.33,2.33,.94,3.09,2.41,3.09s2.92-.76,3.24-3.09l2.68-19.01c.32-2.33-.9-3.09-2.38-3.09Zm-128.32,3.99l-4.51,14.78h4.81l-.3-14.78Zm-285.54-3.99c-1.52,0-2.96,.76-3.29,3.09l-2.67,19.01c-.33,2.33,.95,3.09,2.42,3.09s2.91-.76,3.24-3.09l2.67-19.01c.33-2.33-.9-3.09-2.37-3.09Zm-30.56,.28h-2.13l-3.46,24.63h2.13c1.72,0,3.53-.76,3.97-3.9l2.38-16.88c.42-3.04-1.13-3.85-2.89-3.85Zm0,0h-2.13l-3.46,24.63h2.13c1.72,0,3.53-.76,3.97-3.9l2.38-16.88c.42-3.04-1.13-3.85-2.89-3.85Zm30.56-.28c-1.52,0-2.96,.76-3.29,3.09l-2.67,19.01c-.33,2.33,.95,3.09,2.42,3.09s2.91-.76,3.24-3.09l2.67-19.01c.33-2.33-.9-3.09-2.37-3.09Zm285.54,3.99l-4.51,14.78h4.81l-.3-14.78Zm128.32-3.99c-1.52,0-2.95,.76-3.28,3.09l-2.67,19.01c-.33,2.33,.94,3.09,2.41,3.09s2.92-.76,3.24-3.09l2.68-19.01c.32-2.33-.9-3.09-2.38-3.09Zm45.8,14.07h-2.43l-1.52,10.84h2.28c1.67,0,3.01-.43,3.35-2.86l.73-5.18c.33-2.33-.8-2.8-2.41-2.8Zm1.56-13.79h-2.05l-1.43,10.18h2.24c1.56,0,2.85-.38,3.21-2.91l.61-4.32c.34-2.43-.73-2.95-2.58-2.95Zm0,0h-2.05l-1.43,10.18h2.24c1.56,0,2.85-.38,3.21-2.91l.61-4.32c.34-2.43-.73-2.95-2.58-2.95Zm-1.56,13.79h-2.43l-1.52,10.84h2.28c1.67,0,3.01-.43,3.35-2.86l.73-5.18c.33-2.33-.8-2.8-2.41-2.8Zm-45.8-14.07c-1.52,0-2.95,.76-3.28,3.09l-2.67,19.01c-.33,2.33,.94,3.09,2.41,3.09s2.92-.76,3.24-3.09l2.68-19.01c.32-2.33-.9-3.09-2.38-3.09Zm-128.32,3.99l-4.51,14.78h4.81l-.3-14.78Zm-285.54-3.99c-1.52,0-2.96,.76-3.29,3.09l-2.67,19.01c-.33,2.33,.95,3.09,2.42,3.09s2.91-.76,3.24-3.09l2.67-19.01c.33-2.33-.9-3.09-2.37-3.09Zm-30.56,.28h-2.13l-3.46,24.63h2.13c1.72,0,3.53-.76,3.97-3.9l2.38-16.88c.42-3.04-1.13-3.85-2.89-3.85Zm0,0h-2.13l-3.46,24.63h2.13c1.72,0,3.53-.76,3.97-3.9l2.38-16.88c.42-3.04-1.13-3.85-2.89-3.85Zm30.56-.28c-1.52,0-2.96,.76-3.29,3.09l-2.67,19.01c-.33,2.33,.95,3.09,2.42,3.09s2.91-.76,3.24-3.09l2.67-19.01c.33-2.33-.9-3.09-2.37-3.09Zm285.54,3.99l-4.51,14.78h4.81l-.3-14.78Zm128.32-3.99c-1.52,0-2.95,.76-3.28,3.09l-2.67,19.01c-.33,2.33,.94,3.09,2.41,3.09s2.92-.76,3.24-3.09l2.68-19.01c.32-2.33-.9-3.09-2.38-3.09Zm45.8,14.07h-2.43l-1.52,10.84h2.28c1.67,0,3.01-.43,3.35-2.86l.73-5.18c.33-2.33-.8-2.8-2.41-2.8Zm1.56-13.79h-2.05l-1.43,10.18h2.24c1.56,0,2.85-.38,3.21-2.91l.61-4.32c.34-2.43-.73-2.95-2.58-2.95Zm0,0h-2.05l-1.43,10.18h2.24c1.56,0,2.85-.38,3.21-2.91l.61-4.32c.34-2.43-.73-2.95-2.58-2.95Zm-1.56,13.79h-2.43l-1.52,10.84h2.28c1.67,0,3.01-.43,3.35-2.86l.73-5.18c.33-2.33-.8-2.8-2.41-2.8Zm-45.8-14.07c-1.52,0-2.95,.76-3.28,3.09l-2.67,19.01c-.33,2.33,.94,3.09,2.41,3.09s2.92-.76,3.24-3.09l2.68-19.01c.32-2.33-.9-3.09-2.38-3.09Zm-128.32,3.99l-4.51,14.78h4.81l-.3-14.78Zm-285.54-3.99c-1.52,0-2.96,.76-3.29,3.09l-2.67,19.01c-.33,2.33,.95,3.09,2.42,3.09s2.91-.76,3.24-3.09l2.67-19.01c.33-2.33-.9-3.09-2.37-3.09Zm-30.56,.28h-2.13l-3.46,24.63h2.13c1.72,0,3.53-.76,3.97-3.9l2.38-16.88c.42-3.04-1.13-3.85-2.89-3.85Zm0,0h-2.13l-3.46,24.63h2.13c1.72,0,3.53-.76,3.97-3.9l2.38-16.88c.42-3.04-1.13-3.85-2.89-3.85Zm30.56-.28c-1.52,0-2.96,.76-3.29,3.09l-2.67,19.01c-.33,2.33,.95,3.09,2.42,3.09s2.91-.76,3.24-3.09l2.67-19.01c.33-2.33-.9-3.09-2.37-3.09Zm285.54,3.99l-4.51,14.78h4.81l-.3-14.78Zm128.32-3.99c-1.52,0-2.95,.76-3.28,3.09l-2.67,19.01c-.33,2.33,.94,3.09,2.41,3.09s2.92-.76,3.24-3.09l2.68-19.01c.32-2.33-.9-3.09-2.38-3.09Zm45.8,14.07h-2.43l-1.52,10.84h2.28c1.67,0,3.01-.43,3.35-2.86l.73-5.18c.33-2.33-.8-2.8-2.41-2.8Zm1.56-13.79h-2.05l-1.43,10.18h2.24c1.56,0,2.85-.38,3.21-2.91l.61-4.32c.34-2.43-.73-2.95-2.58-2.95Zm132.41-.28c-1.52,0-2.96,.76-3.28,3.09l-2.68,19.01c-.32,2.33,.95,3.09,2.42,3.09s2.91-.76,3.24-3.09l2.67-19.01c.33-2.33-.89-3.09-2.37-3.09Zm0,0c-1.52,0-2.96,.76-3.28,3.09l-2.68,19.01c-.32,2.33,.95,3.09,2.42,3.09s2.91-.76,3.24-3.09l2.67-19.01c.33-2.33-.89-3.09-2.37-3.09Zm-132.41,.28h-2.05l-1.43,10.18h2.24c1.56,0,2.85-.38,3.21-2.91l.61-4.32c.34-2.43-.73-2.95-2.58-2.95Zm-1.56,13.79h-2.43l-1.52,10.84h2.28c1.67,0,3.01-.43,3.35-2.86l.73-5.18c.33-2.33-.8-2.8-2.41-2.8Zm-45.8-14.07c-1.52,0-2.95,.76-3.28,3.09l-2.67,19.01c-.33,2.33,.94,3.09,2.41,3.09s2.92-.76,3.24-3.09l2.68-19.01c.32-2.33-.9-3.09-2.38-3.09Zm-128.32,3.99l-4.51,14.78h4.81l-.3-14.78Zm-285.54-3.99c-1.52,0-2.96,.76-3.29,3.09l-2.67,19.01c-.33,2.33,.95,3.09,2.42,3.09s2.91-.76,3.24-3.09l2.67-19.01c.33-2.33-.9-3.09-2.37-3.09Zm-30.56,.28h-2.13l-3.46,24.63h2.13c1.72,0,3.53-.76,3.97-3.9l2.38-16.88c.42-3.04-1.13-3.85-2.89-3.85Zm0,0h-2.13l-3.46,24.63h2.13c1.72,0,3.53-.76,3.97-3.9l2.38-16.88c.42-3.04-1.13-3.85-2.89-3.85Zm30.56-.28c-1.52,0-2.96,.76-3.29,3.09l-2.67,19.01c-.33,2.33,.95,3.09,2.42,3.09s2.91-.76,3.24-3.09l2.67-19.01c.33-2.33-.9-3.09-2.37-3.09Zm285.54,3.99l-4.51,14.78h4.81l-.3-14.78Zm128.32-3.99c-1.52,0-2.95,.76-3.28,3.09l-2.67,19.01c-.33,2.33,.94,3.09,2.41,3.09s2.92-.76,3.24-3.09l2.68-19.01c.32-2.33-.9-3.09-2.38-3.09Zm45.8,14.07h-2.43l-1.52,10.84h2.28c1.67,0,3.01-.43,3.35-2.86l.73-5.18c.33-2.33-.8-2.8-2.41-2.8Zm1.56-13.79h-2.05l-1.43,10.18h2.24c1.56,0,2.85-.38,3.21-2.91l.61-4.32c.34-2.43-.73-2.95-2.58-2.95Zm132.41-.28c-1.52,0-2.96,.76-3.28,3.09l-2.68,19.01c-.32,2.33,.95,3.09,2.42,3.09s2.91-.76,3.24-3.09l2.67-19.01c.33-2.33-.89-3.09-2.37-3.09Zm134.81,3.99l-4.5,14.78h4.8l-.3-14.78Zm29.33-3.71h-1.9l-2.19,15.6h1.9c1.81,0,3.51-.62,4.02-4.28l1.07-7.61c.42-2.99-1.14-3.71-2.9-3.71Zm0,0h-1.9l-2.19,15.6h1.9c1.81,0,3.51-.62,4.02-4.28l1.07-7.61c.42-2.99-1.14-3.71-2.9-3.71Zm-29.33,3.71l-4.5,14.78h4.8l-.3-14.78Zm-134.81-3.99c-1.52,0-2.96,.76-3.28,3.09l-2.68,19.01c-.32,2.33,.95,3.09,2.42,3.09s2.91-.76,3.24-3.09l2.67-19.01c.33-2.33-.89-3.09-2.37-3.09Zm-132.41,.28h-2.05l-1.43,10.18h2.24c1.56,0,2.85-.38,3.21-2.91l.61-4.32c.34-2.43-.73-2.95-2.58-2.95Zm-1.56,13.79h-2.43l-1.52,10.84h2.28c1.67,0,3.01-.43,3.35-2.86l.73-5.18c.33-2.33-.8-2.8-2.41-2.8Zm-45.8-14.07c-1.52,0-2.95,.76-3.28,3.09l-2.67,19.01c-.33,2.33,.94,3.09,2.41,3.09s2.92-.76,3.24-3.09l2.68-19.01c.32-2.33-.9-3.09-2.38-3.09Zm-128.32,3.99l-4.51,14.78h4.81l-.3-14.78Zm-285.54-3.99c-1.52,0-2.96,.76-3.29,3.09l-2.67,19.01c-.33,2.33,.95,3.09,2.42,3.09s2.91-.76,3.24-3.09l2.67-19.01c.33-2.33-.9-3.09-2.37-3.09Zm-30.56,.28h-2.13l-3.46,24.63h2.13c1.72,0,3.53-.76,3.97-3.9l2.38-16.88c.42-3.04-1.13-3.85-2.89-3.85Zm0,0h-2.13l-3.46,24.63h2.13c1.72,0,3.53-.76,3.97-3.9l2.38-16.88c.42-3.04-1.13-3.85-2.89-3.85Zm30.56-.28c-1.52,0-2.96,.76-3.29,3.09l-2.67,19.01c-.33,2.33,.95,3.09,2.42,3.09s2.91-.76,3.24-3.09l2.67-19.01c.33-2.33-.9-3.09-2.37-3.09Zm285.54,3.99l-4.51,14.78h4.81l-.3-14.78Zm128.32-3.99c-1.52,0-2.95,.76-3.28,3.09l-2.67,19.01c-.33,2.33,.94,3.09,2.41,3.09s2.92-.76,3.24-3.09l2.68-19.01c.32-2.33-.9-3.09-2.38-3.09Zm45.8,14.07h-2.43l-1.52,10.84h2.28c1.67,0,3.01-.43,3.35-2.86l.73-5.18c.33-2.33-.8-2.8-2.41-2.8Zm1.56-13.79h-2.05l-1.43,10.18h2.24c1.56,0,2.85-.38,3.21-2.91l.61-4.32c.34-2.43-.73-2.95-2.58-2.95Zm132.41-.28c-1.52,0-2.96,.76-3.28,3.09l-2.68,19.01c-.32,2.33,.95,3.09,2.42,3.09s2.91-.76,3.24-3.09l2.67-19.01c.33-2.33-.89-3.09-2.37-3.09Zm134.81,3.99l-4.5,14.78h4.8l-.3-14.78Zm29.33-3.71h-1.9l-2.19,15.6h1.9c1.81,0,3.51-.62,4.02-4.28l1.07-7.61c.42-2.99-1.14-3.71-2.9-3.71Zm0,0h-1.9l-2.19,15.6h1.9c1.81,0,3.51-.62,4.02-4.28l1.07-7.61c.42-2.99-1.14-3.71-2.9-3.71Zm-29.33,3.71l-4.5,14.78h4.8l-.3-14.78Zm-134.81-3.99c-1.52,0-2.96,.76-3.28,3.09l-2.68,19.01c-.32,2.33,.95,3.09,2.42,3.09s2.91-.76,3.24-3.09l2.67-19.01c.33-2.33-.89-3.09-2.37-3.09Zm-132.41,.28h-2.05l-1.43,10.18h2.24c1.56,0,2.85-.38,3.21-2.91l.61-4.32c.34-2.43-.73-2.95-2.58-2.95Zm-1.56,13.79h-2.43l-1.52,10.84h2.28c1.67,0,3.01-.43,3.35-2.86l.73-5.18c.33-2.33-.8-2.8-2.41-2.8Zm-45.8-14.07c-1.52,0-2.95,.76-3.28,3.09l-2.67,19.01c-.33,2.33,.94,3.09,2.41,3.09s2.92-.76,3.24-3.09l2.68-19.01c.32-2.33-.9-3.09-2.38-3.09Zm-128.32,3.99l-4.51,14.78h4.81l-.3-14.78Zm-285.54-3.99c-1.52,0-2.96,.76-3.29,3.09l-2.67,19.01c-.33,2.33,.95,3.09,2.42,3.09s2.91-.76,3.24-3.09l2.67-19.01c.33-2.33-.9-3.09-2.37-3.09Zm-30.56,.28h-2.13l-3.46,24.63h2.13c1.72,0,3.53-.76,3.97-3.9l2.38-16.88c.42-3.04-1.13-3.85-2.89-3.85Zm0,0h-2.13l-3.46,24.63h2.13c1.72,0,3.53-.76,3.97-3.9l2.38-16.88c.42-3.04-1.13-3.85-2.89-3.85Zm30.56-.28c-1.52,0-2.96,.76-3.29,3.09l-2.67,19.01c-.33,2.33,.95,3.09,2.42,3.09s2.91-.76,3.24-3.09l2.67-19.01c.33-2.33-.9-3.09-2.37-3.09Zm285.54,3.99l-4.51,14.78h4.81l-.3-14.78Zm128.32-3.99c-1.52,0-2.95,.76-3.28,3.09l-2.67,19.01c-.33,2.33,.94,3.09,2.41,3.09s2.92-.76,3.24-3.09l2.68-19.01c.32-2.33-.9-3.09-2.38-3.09Zm45.8,14.07h-2.43l-1.52,10.84h2.28c1.67,0,3.01-.43,3.35-2.86l.73-5.18c.33-2.33-.8-2.8-2.41-2.8Zm1.56-13.79h-2.05l-1.43,10.18h2.24c1.56,0,2.85-.38,3.21-2.91l.61-4.32c.34-2.43-.73-2.95-2.58-2.95Zm132.41-.28c-1.52,0-2.96,.76-3.28,3.09l-2.68,19.01c-.32,2.33,.95,3.09,2.42,3.09s2.91-.76,3.24-3.09l2.67-19.01c.33-2.33-.89-3.09-2.37-3.09Zm134.81,3.99l-4.5,14.78h4.8l-.3-14.78Zm29.33-3.71h-1.9l-2.19,15.6h1.9c1.81,0,3.51-.62,4.02-4.28l1.07-7.61c.42-2.99-1.14-3.71-2.9-3.71Zm0,0h-1.9l-2.19,15.6h1.9c1.81,0,3.51-.62,4.02-4.28l1.07-7.61c.42-2.99-1.14-3.71-2.9-3.71Zm-29.33,3.71l-4.5,14.78h4.8l-.3-14.78Zm-134.81-3.99c-1.52,0-2.96,.76-3.28,3.09l-2.68,19.01c-.32,2.33,.95,3.09,2.42,3.09s2.91-.76,3.24-3.09l2.67-19.01c.33-2.33-.89-3.09-2.37-3.09Zm-132.41,.28h-2.05l-1.43,10.18h2.24c1.56,0,2.85-.38,3.21-2.91l.61-4.32c.34-2.43-.73-2.95-2.58-2.95Zm-1.56,13.79h-2.43l-1.52,10.84h2.28c1.67,0,3.01-.43,3.35-2.86l.73-5.18c.33-2.33-.8-2.8-2.41-2.8Zm-45.8-14.07c-1.52,0-2.95,.76-3.28,3.09l-2.67,19.01c-.33,2.33,.94,3.09,2.41,3.09s2.92-.76,3.24-3.09l2.68-19.01c.32-2.33-.9-3.09-2.38-3.09Zm-128.32,3.99l-4.51,14.78h4.81l-.3-14.78Zm-285.54-3.99c-1.52,0-2.96,.76-3.29,3.09l-2.67,19.01c-.33,2.33,.95,3.09,2.42,3.09s2.91-.76,3.24-3.09l2.67-19.01c.33-2.33-.9-3.09-2.37-3.09Zm-30.56,.28h-2.13l-3.46,24.63h2.13c1.72,0,3.53-.76,3.97-3.9l2.38-16.88c.42-3.04-1.13-3.85-2.89-3.85Zm0,0h-2.13l-3.46,24.63h2.13c1.72,0,3.53-.76,3.97-3.9l2.38-16.88c.42-3.04-1.13-3.85-2.89-3.85Zm30.56-.28c-1.52,0-2.96,.76-3.29,3.09l-2.67,19.01c-.33,2.33,.95,3.09,2.42,3.09s2.91-.76,3.24-3.09l2.67-19.01c.33-2.33-.9-3.09-2.37-3.09Zm285.54,3.99l-4.51,14.78h4.81l-.3-14.78Zm128.32-3.99c-1.52,0-2.95,.76-3.28,3.09l-2.67,19.01c-.33,2.33,.94,3.09,2.41,3.09s2.92-.76,3.24-3.09l2.68-19.01c.32-2.33-.9-3.09-2.38-3.09Zm45.8,14.07h-2.43l-1.52,10.84h2.28c1.67,0,3.01-.43,3.35-2.86l.73-5.18c.33-2.33-.8-2.8-2.41-2.8Zm1.56-13.79h-2.05l-1.43,10.18h2.24c1.56,0,2.85-.38,3.21-2.91l.61-4.32c.34-2.43-.73-2.95-2.58-2.95Zm132.41-.28c-1.52,0-2.96,.76-3.28,3.09l-2.68,19.01c-.32,2.33,.95,3.09,2.42,3.09s2.91-.76,3.24-3.09l2.67-19.01c.33-2.33-.89-3.09-2.37-3.09Zm59.33,.28h-1.9l-2.19,15.6h1.9c1.81,0,3.51-.62,4.02-4.28l1.07-7.61c.42-2.99-1.14-3.71-2.9-3.71Zm75.48,3.71l-4.5,14.78h4.8l-.3-14.78Zm29.33-3.71h-1.9l-2.19,15.6h1.9c1.81,0,3.51-.62,4.02-4.28l1.07-7.61c.42-2.99-1.14-3.71-2.9-3.71Zm0,0h-1.9l-2.19,15.6h1.9c1.81,0,3.51-.62,4.02-4.28l1.07-7.61c.42-2.99-1.14-3.71-2.9-3.71Zm-29.33,3.71l-4.5,14.78h4.8l-.3-14.78Zm-75.48-3.71h-1.9l-2.19,15.6h1.9c1.81,0,3.51-.62,4.02-4.28l1.07-7.61c.42-2.99-1.14-3.71-2.9-3.71Zm-59.33-.28c-1.52,0-2.96,.76-3.28,3.09l-2.68,19.01c-.32,2.33,.95,3.09,2.42,3.09s2.91-.76,3.24-3.09l2.67-19.01c.33-2.33-.89-3.09-2.37-3.09Zm-132.41,.28h-2.05l-1.43,10.18h2.24c1.56,0,2.85-.38,3.21-2.91l.61-4.32c.34-2.43-.73-2.95-2.58-2.95Zm-1.56,13.79h-2.43l-1.52,10.84h2.28c1.67,0,3.01-.43,3.35-2.86l.73-5.18c.33-2.33-.8-2.8-2.41-2.8Zm-45.8-14.07c-1.52,0-2.95,.76-3.28,3.09l-2.67,19.01c-.33,2.33,.94,3.09,2.41,3.09s2.92-.76,3.24-3.09l2.68-19.01c.32-2.33-.9-3.09-2.38-3.09Zm-128.32,3.99l-4.51,14.78h4.81l-.3-14.78Zm-285.54-3.99c-1.52,0-2.96,.76-3.29,3.09l-2.67,19.01c-.33,2.33,.95,3.09,2.42,3.09s2.91-.76,3.24-3.09l2.67-19.01c.33-2.33-.9-3.09-2.37-3.09Zm-30.56,.28h-2.13l-3.46,24.63h2.13c1.72,0,3.53-.76,3.97-3.9l2.38-16.88c.42-3.04-1.13-3.85-2.89-3.85ZM0,149.16v58H1069v-58H0Zm34.26,35.33l-1.71,12.12h-4.61l1.71-12.12-3.13-21.4h4.75l1.75,13.98,5.72-13.98h4.75l-9.23,21.4Zm35.75-13.93l-2.62,18.68c-.64,4.52-4.18,7.7-8.55,7.7s-7.01-3.18-6.38-7.7l2.63-18.68c.64-4.57,4.13-7.75,8.55-7.75s7.01,3.18,6.37,7.75Zm27.32,18.68c-.63,4.52-4.17,7.7-8.5,7.7s-7.01-3.18-6.38-7.7l3.68-26.15h4.61l-3.7,26.34c-.34,2.42,1.09,3.04,2.42,3.04s2.91-.71,3.23-3.04l3.71-26.34h4.61l-3.68,26.15Zm50.61-17.83l-2.38,16.93c-.76,5.42-4.2,8.27-8.58,8.27h-7.32l4.71-33.52h7.32c4.38,0,7,2.95,6.25,8.32Zm30.11-.85l-2.62,18.68c-.64,4.52-4.18,7.7-8.55,7.7s-7.01-3.18-6.38-7.7l2.63-18.68c.64-4.57,4.13-7.75,8.55-7.75s7.01,3.18,6.37,7.75Zm26.71,26.05h-4.37l-3.21-19.73-2.78,19.73h-4.61l4.71-33.52h4.33l3.15,20.16,2.84-20.16h4.65l-4.71,33.52Zm20.73-23.01h-3.37l4.28-10.51h4.75l-5.66,10.51Zm30.7-6.04h-4.47l-4.08,29.05h-4.66l4.08-29.05h-4.42l.63-4.47h13.55l-.63,4.47Zm44.49,0h-7.89l-1.4,9.94h5.9l-.58,4.09h-5.89l-1.49,10.55h7.9l-.63,4.47h-12.5l4.71-33.52h12.5l-.63,4.47Zm19.59,29.05h-4.85l-1.09-33.52h4.61l.35,23.2,6.88-23.2h4.61l-10.51,33.52Zm36.26-29.05h-7.89l-1.4,9.94h5.9l-.58,4.09h-5.89l-1.48,10.55h7.89l-.63,4.47h-12.5l4.71-33.52h12.5l-.63,4.47Zm25.86,29.05h-4.37l-3.22-19.73-2.77,19.73h-4.61l4.71-33.52h4.33l3.15,20.16,2.83-20.16h4.66l-4.71,33.52Zm48.2,0h-4.61l2.11-15.02h-5.32l-2.11,15.02h-4.66l4.71-33.52h4.66l-2.03,14.41h5.33l2.02-14.41h4.61l-4.71,33.52Zm26.47,0l-.17-6.56h-5.99l-2.06,6.56h-4.66l11.09-33.56h4.9l1.55,33.56h-4.66Zm26.05,0h-4.84l-1.09-33.52h4.61l.35,23.2,6.87-23.2h4.61l-10.51,33.52Zm36.27-29.05h-7.9l-1.39,9.94h5.89l-.57,4.09h-5.9l-1.48,10.55h7.89l-.63,4.47h-12.5l4.71-33.52h12.5l-.62,4.47Zm44.77,0h-4.47l-4.08,29.05h-4.66l4.09-29.05h-4.43l.63-4.47h13.55l-.63,4.47Zm27.77,3l-2.63,18.68c-.63,4.52-4.17,7.7-8.54,7.7s-7.02-3.18-6.38-7.7l2.62-18.68c.64-4.57,4.13-7.75,8.55-7.75s7.02,3.18,6.38,7.75Zm47.62-.95l-.71,4.99c-.38,2.71-1.49,4.18-3.25,4.89,1.66,.72,2.52,2.05,2.09,5.04l-.8,5.71c-.6,4.32-3.89,6.37-8.31,6.37h-7.03l4.71-33.52h6.84c4.38,0,7.06,2.19,6.46,6.52Zm28.14-2.05h-7.89l-1.4,9.94h5.89l-.57,4.09h-5.9l-1.48,10.55h7.89l-.63,4.47h-12.5l4.71-33.52h12.5l-.62,4.47Zm28.36,2.81h-4.61c.33-2.33-.95-3.09-2.42-3.09s-2.91,.76-3.24,3.09l-2.67,19.01c-.35,2.47,1.08,3.14,2.36,3.14,1.48,0,2.96-.76,3.3-3.14l.64-4.56h-2.85l.56-4.04h7.47l-1.19,8.46c-.64,4.56-4.13,7.7-8.55,7.7s-6.97-3.14-6.33-7.7l2.63-18.68c.64-4.61,4.13-7.8,8.51-7.8s6.92,3.14,6.39,7.61Zm39.89,14.12l-1.7,12.12h-4.61l1.7-12.12-3.12-21.4h4.75l1.74,13.98,5.72-13.98h4.76l-9.24,21.4Zm35.76-13.93l-2.63,18.68c-.64,4.52-4.17,7.7-8.55,7.7s-7.01-3.18-6.38-7.7l2.63-18.68c.64-4.57,4.13-7.75,8.55-7.75s7.02,3.18,6.38,7.75Zm27.31,18.68c-.63,4.52-4.17,7.7-8.49,7.7s-7.02-3.18-6.38-7.7l3.67-26.15h4.61l-3.7,26.34c-.34,2.42,1.1,3.04,2.43,3.04s2.9-.71,3.23-3.04l3.7-26.34h4.61l-3.68,26.15Zm32.48-17.97l-1.11,7.89c-.53,3.76-2.27,5.99-4.66,7.13l2.35,10.32h-5.04l-1.77-9.03h-1.95l-1.27,9.03h-4.66l4.71-33.52h7.13c4.37,0,7.01,2.86,6.27,8.18Zm47.49-.05l-1.21,8.61c-.74,5.23-4.17,8.03-8.55,8.03h-2.47l-1.23,8.75h-4.65l4.71-33.52h7.13c4.37,0,7,2.9,6.27,8.13Zm21,25.39l-.17-6.56h-5.99l-2.06,6.56h-4.66l11.09-33.56h4.89l1.56,33.56h-4.66Zm36.32-25.34l-1.11,7.89c-.53,3.76-2.27,5.99-4.67,7.13l2.36,10.32h-5.04l-1.78-9.03h-1.94l-1.27,9.03h-4.66l4.71-33.52h7.13c4.37,0,7.01,2.86,6.27,8.18Zm28.04-3.71h-7.89l-1.4,9.94h5.89l-.57,4.09h-5.9l-1.48,10.55h7.89l-.63,4.47h-12.5l4.71-33.52h12.51l-.63,4.47Zm25.86,29.05h-4.37l-3.22-19.73-2.77,19.73h-4.61l4.71-33.52h4.32l3.16,20.16,2.83-20.16h4.66l-4.71,33.52Zm31.7-29.05h-4.47l-4.08,29.05h-4.66l4.08-29.05h-4.42l.63-4.47h13.55l-.63,4.47Zm26.19,2.71h-4.52c.33-2.33-.98-3.14-2.31-3.14s-2.69,.86-2.92,2.48c-.16,1.14,.04,2.42,.92,3.99l4.75,8.79c1.73,3.24,1.94,5.14,1.6,7.52-.6,4.27-4.03,7.08-8.45,7.08s-7.19-2.95-6.52-7.75h4.61c-.35,2.47,1.07,3.23,2.59,3.23s2.94-.95,3.18-2.71c.18-1.28-.01-2.23-1.06-4.23l-4.75-8.84c-1.77-3.28-1.79-5.18-1.52-7.13,.59-4.19,4.05-6.8,8.23-6.8s6.82,2.85,6.17,7.51Zm-119.26-2.71h-1.9l-2.19,15.6h1.9c1.81,0,3.51-.62,4.02-4.28l1.07-7.61c.42-2.99-1.14-3.71-2.9-3.71Zm-33.83,18.49h4.8l-.3-14.78-4.5,14.78Zm-23.49-18.49h-1.9l-2.24,15.88h1.91c1.71,0,3.52-.71,3.94-3.71l1.19-8.46c.42-2.99-1.15-3.71-2.9-3.71Zm-47.49,0h-1.9l-2.19,15.6h1.9c1.81,0,3.51-.62,4.02-4.28l1.07-7.61c.42-2.99-1.14-3.71-2.9-3.71Zm-59.33-.28c-1.52,0-2.96,.76-3.28,3.09l-2.68,19.01c-.32,2.33,.95,3.09,2.42,3.09s2.91-.76,3.24-3.09l2.67-19.01c.33-2.33-.89-3.09-2.37-3.09Zm-132.41,.28h-2.05l-1.43,10.18h2.24c1.56,0,2.85-.38,3.21-2.91l.61-4.32c.34-2.43-.73-2.95-2.58-2.95Zm-1.56,13.79h-2.43l-1.52,10.84h2.28c1.67,0,3.01-.43,3.35-2.86l.73-5.18c.33-2.33-.8-2.8-2.41-2.8Zm-45.8-14.07c-1.52,0-2.95,.76-3.28,3.09l-2.67,19.01c-.33,2.33,.94,3.09,2.41,3.09s2.92-.76,3.24-3.09l2.68-19.01c.32-2.33-.9-3.09-2.38-3.09Zm-132.83,18.77h4.81l-.3-14.78-4.51,14.78Zm-281.03-18.77c-1.52,0-2.96,.76-3.29,3.09l-2.67,19.01c-.33,2.33,.95,3.09,2.42,3.09s2.91-.76,3.24-3.09l2.67-19.01c.33-2.33-.9-3.09-2.37-3.09Zm-30.56,.28h-2.13l-3.46,24.63h2.13c1.72,0,3.53-.76,3.97-3.9l2.38-16.88c.42-3.04-1.13-3.85-2.89-3.85Zm0,0h-2.13l-3.46,24.63h2.13c1.72,0,3.53-.76,3.97-3.9l2.38-16.88c.42-3.04-1.13-3.85-2.89-3.85Zm30.56-.28c-1.52,0-2.96,.76-3.29,3.09l-2.67,19.01c-.33,2.33,.95,3.09,2.42,3.09s2.91-.76,3.24-3.09l2.67-19.01c.33-2.33-.9-3.09-2.37-3.09Zm285.54,3.99l-4.51,14.78h4.81l-.3-14.78Zm128.32-3.99c-1.52,0-2.95,.76-3.28,3.09l-2.67,19.01c-.33,2.33,.94,3.09,2.41,3.09s2.92-.76,3.24-3.09l2.68-19.01c.32-2.33-.9-3.09-2.38-3.09Zm45.8,14.07h-2.43l-1.52,10.84h2.28c1.67,0,3.01-.43,3.35-2.86l.73-5.18c.33-2.33-.8-2.8-2.41-2.8Zm1.56-13.79h-2.05l-1.43,10.18h2.24c1.56,0,2.85-.38,3.21-2.91l.61-4.32c.34-2.43-.73-2.95-2.58-2.95Zm132.41-.28c-1.52,0-2.96,.76-3.28,3.09l-2.68,19.01c-.32,2.33,.95,3.09,2.42,3.09s2.91-.76,3.24-3.09l2.67-19.01c.33-2.33-.89-3.09-2.37-3.09Zm134.81,3.99l-4.5,14.78h4.8l-.3-14.78Zm29.33-3.71h-1.9l-2.19,15.6h1.9c1.81,0,3.51-.62,4.02-4.28l1.07-7.61c.42-2.99-1.14-3.71-2.9-3.71Zm0,0h-1.9l-2.19,15.6h1.9c1.81,0,3.51-.62,4.02-4.28l1.07-7.61c.42-2.99-1.14-3.71-2.9-3.71Zm-29.33,3.71l-4.5,14.78h4.8l-.3-14.78Zm-134.81-3.99c-1.52,0-2.96,.76-3.28,3.09l-2.68,19.01c-.32,2.33,.95,3.09,2.42,3.09s2.91-.76,3.24-3.09l2.67-19.01c.33-2.33-.89-3.09-2.37-3.09Zm-132.41,.28h-2.05l-1.43,10.18h2.24c1.56,0,2.85-.38,3.21-2.91l.61-4.32c.34-2.43-.73-2.95-2.58-2.95Zm-1.56,13.79h-2.43l-1.52,10.84h2.28c1.67,0,3.01-.43,3.35-2.86l.73-5.18c.33-2.33-.8-2.8-2.41-2.8Zm-45.8-14.07c-1.52,0-2.95,.76-3.28,3.09l-2.67,19.01c-.33,2.33,.94,3.09,2.41,3.09s2.92-.76,3.24-3.09l2.68-19.01c.32-2.33-.9-3.09-2.38-3.09Zm-128.32,3.99l-4.51,14.78h4.81l-.3-14.78Zm-285.54-3.99c-1.52,0-2.96,.76-3.29,3.09l-2.67,19.01c-.33,2.33,.95,3.09,2.42,3.09s2.91-.76,3.24-3.09l2.67-19.01c.33-2.33-.9-3.09-2.37-3.09Zm-30.56,.28h-2.13l-3.46,24.63h2.13c1.72,0,3.53-.76,3.97-3.9l2.38-16.88c.42-3.04-1.13-3.85-2.89-3.85Zm0,0h-2.13l-3.46,24.63h2.13c1.72,0,3.53-.76,3.97-3.9l2.38-16.88c.42-3.04-1.13-3.85-2.89-3.85Zm30.56-.28c-1.52,0-2.96,.76-3.29,3.09l-2.67,19.01c-.33,2.33,.95,3.09,2.42,3.09s2.91-.76,3.24-3.09l2.67-19.01c.33-2.33-.9-3.09-2.37-3.09Zm285.54,3.99l-4.51,14.78h4.81l-.3-14.78Zm128.32-3.99c-1.52,0-2.95,.76-3.28,3.09l-2.67,19.01c-.33,2.33,.94,3.09,2.41,3.09s2.92-.76,3.24-3.09l2.68-19.01c.32-2.33-.9-3.09-2.38-3.09Zm45.8,14.07h-2.43l-1.52,10.84h2.28c1.67,0,3.01-.43,3.35-2.86l.73-5.18c.33-2.33-.8-2.8-2.41-2.8Zm1.56-13.79h-2.05l-1.43,10.18h2.24c1.56,0,2.85-.38,3.21-2.91l.61-4.32c.34-2.43-.73-2.95-2.58-2.95Zm132.41-.28c-1.52,0-2.96,.76-3.28,3.09l-2.68,19.01c-.32,2.33,.95,3.09,2.42,3.09s2.91-.76,3.24-3.09l2.67-19.01c.33-2.33-.89-3.09-2.37-3.09Zm134.81,3.99l-4.5,14.78h4.8l-.3-14.78Zm29.33-3.71h-1.9l-2.19,15.6h1.9c1.81,0,3.51-.62,4.02-4.28l1.07-7.61c.42-2.99-1.14-3.71-2.9-3.71Zm0,0h-1.9l-2.19,15.6h1.9c1.81,0,3.51-.62,4.02-4.28l1.07-7.61c.42-2.99-1.14-3.71-2.9-3.71Zm-29.33,3.71l-4.5,14.78h4.8l-.3-14.78Zm-134.81-3.99c-1.52,0-2.96,.76-3.28,3.09l-2.68,19.01c-.32,2.33,.95,3.09,2.42,3.09s2.91-.76,3.24-3.09l2.67-19.01c.33-2.33-.89-3.09-2.37-3.09Zm-132.41,.28h-2.05l-1.43,10.18h2.24c1.56,0,2.85-.38,3.21-2.91l.61-4.32c.34-2.43-.73-2.95-2.58-2.95Zm-1.56,13.79h-2.43l-1.52,10.84h2.28c1.67,0,3.01-.43,3.35-2.86l.73-5.18c.33-2.33-.8-2.8-2.41-2.8Zm-45.8-14.07c-1.52,0-2.95,.76-3.28,3.09l-2.67,19.01c-.33,2.33,.94,3.09,2.41,3.09s2.92-.76,3.24-3.09l2.68-19.01c.32-2.33-.9-3.09-2.38-3.09Zm-128.32,3.99l-4.51,14.78h4.81l-.3-14.78Zm-285.54-3.99c-1.52,0-2.96,.76-3.29,3.09l-2.67,19.01c-.33,2.33,.95,3.09,2.42,3.09s2.91-.76,3.24-3.09l2.67-19.01c.33-2.33-.9-3.09-2.37-3.09Zm-30.56,.28h-2.13l-3.46,24.63h2.13c1.72,0,3.53-.76,3.97-3.9l2.38-16.88c.42-3.04-1.13-3.85-2.89-3.85Zm0,0h-2.13l-3.46,24.63h2.13c1.72,0,3.53-.76,3.97-3.9l2.38-16.88c.42-3.04-1.13-3.85-2.89-3.85Zm30.56-.28c-1.52,0-2.96,.76-3.29,3.09l-2.67,19.01c-.33,2.33,.95,3.09,2.42,3.09s2.91-.76,3.24-3.09l2.67-19.01c.33-2.33-.9-3.09-2.37-3.09Zm285.54,3.99l-4.51,14.78h4.81l-.3-14.78Zm128.32-3.99c-1.52,0-2.95,.76-3.28,3.09l-2.67,19.01c-.33,2.33,.94,3.09,2.41,3.09s2.92-.76,3.24-3.09l2.68-19.01c.32-2.33-.9-3.09-2.38-3.09Zm45.8,14.07h-2.43l-1.52,10.84h2.28c1.67,0,3.01-.43,3.35-2.86l.73-5.18c.33-2.33-.8-2.8-2.41-2.8Zm1.56-13.79h-2.05l-1.43,10.18h2.24c1.56,0,2.85-.38,3.21-2.91l.61-4.32c.34-2.43-.73-2.95-2.58-2.95Zm132.41-.28c-1.52,0-2.96,.76-3.28,3.09l-2.68,19.01c-.32,2.33,.95,3.09,2.42,3.09s2.91-.76,3.24-3.09l2.67-19.01c.33-2.33-.89-3.09-2.37-3.09Zm134.81,3.99l-4.5,14.78h4.8l-.3-14.78Zm29.33-3.71h-1.9l-2.19,15.6h1.9c1.81,0,3.51-.62,4.02-4.28l1.07-7.61c.42-2.99-1.14-3.71-2.9-3.71Zm0,0h-1.9l-2.19,15.6h1.9c1.81,0,3.51-.62,4.02-4.28l1.07-7.61c.42-2.99-1.14-3.71-2.9-3.71Zm-29.33,3.71l-4.5,14.78h4.8l-.3-14.78Zm-134.81-3.99c-1.52,0-2.96,.76-3.28,3.09l-2.68,19.01c-.32,2.33,.95,3.09,2.42,3.09s2.91-.76,3.24-3.09l2.67-19.01c.33-2.33-.89-3.09-2.37-3.09Zm-132.41,.28h-2.05l-1.43,10.18h2.24c1.56,0,2.85-.38,3.21-2.91l.61-4.32c.34-2.43-.73-2.95-2.58-2.95Zm-1.56,13.79h-2.43l-1.52,10.84h2.28c1.67,0,3.01-.43,3.35-2.86l.73-5.18c.33-2.33-.8-2.8-2.41-2.8Zm-45.8-14.07c-1.52,0-2.95,.76-3.28,3.09l-2.67,19.01c-.33,2.33,.94,3.09,2.41,3.09s2.92-.76,3.24-3.09l2.68-19.01c.32-2.33-.9-3.09-2.38-3.09Zm-128.32,3.99l-4.51,14.78h4.81l-.3-14.78Zm-285.54-3.99c-1.52,0-2.96,.76-3.29,3.09l-2.67,19.01c-.33,2.33,.95,3.09,2.42,3.09s2.91-.76,3.24-3.09l2.67-19.01c.33-2.33-.9-3.09-2.37-3.09Zm-30.56,.28h-2.13l-3.46,24.63h2.13c1.72,0,3.53-.76,3.97-3.9l2.38-16.88c.42-3.04-1.13-3.85-2.89-3.85Zm0,0h-2.13l-3.46,24.63h2.13c1.72,0,3.53-.76,3.97-3.9l2.38-16.88c.42-3.04-1.13-3.85-2.89-3.85Zm30.56-.28c-1.52,0-2.96,.76-3.29,3.09l-2.67,19.01c-.33,2.33,.95,3.09,2.42,3.09s2.91-.76,3.24-3.09l2.67-19.01c.33-2.33-.9-3.09-2.37-3.09Zm285.54,3.99l-4.51,14.78h4.81l-.3-14.78Zm128.32-3.99c-1.52,0-2.95,.76-3.28,3.09l-2.67,19.01c-.33,2.33,.94,3.09,2.41,3.09s2.92-.76,3.24-3.09l2.68-19.01c.32-2.33-.9-3.09-2.38-3.09Zm45.8,14.07h-2.43l-1.52,10.84h2.28c1.67,0,3.01-.43,3.35-2.86l.73-5.18c.33-2.33-.8-2.8-2.41-2.8Zm1.56-13.79h-2.05l-1.43,10.18h2.24c1.56,0,2.85-.38,3.21-2.91l.61-4.32c.34-2.43-.73-2.95-2.58-2.95Zm132.41-.28c-1.52,0-2.96,.76-3.28,3.09l-2.68,19.01c-.32,2.33,.95,3.09,2.42,3.09s2.91-.76,3.24-3.09l2.67-19.01c.33-2.33-.89-3.09-2.37-3.09Zm134.81,3.99l-4.5,14.78h4.8l-.3-14.78Zm0,0l-4.5,14.78h4.8l-.3-14.78Zm-134.81-3.99c-1.52,0-2.96,.76-3.28,3.09l-2.68,19.01c-.32,2.33,.95,3.09,2.42,3.09s2.91-.76,3.24-3.09l2.67-19.01c.33-2.33-.89-3.09-2.37-3.09Zm-132.41,.28h-2.05l-1.43,10.18h2.24c1.56,0,2.85-.38,3.21-2.91l.61-4.32c.34-2.43-.73-2.95-2.58-2.95Zm-1.56,13.79h-2.43l-1.52,10.84h2.28c1.67,0,3.01-.43,3.35-2.86l.73-5.18c.33-2.33-.8-2.8-2.41-2.8Zm-45.8-14.07c-1.52,0-2.95,.76-3.28,3.09l-2.67,19.01c-.33,2.33,.94,3.09,2.41,3.09s2.92-.76,3.24-3.09l2.68-19.01c.32-2.33-.9-3.09-2.38-3.09Zm-128.32,3.99l-4.51,14.78h4.81l-.3-14.78Zm-285.54-3.99c-1.52,0-2.96,.76-3.29,3.09l-2.67,19.01c-.33,2.33,.95,3.09,2.42,3.09s2.91-.76,3.24-3.09l2.67-19.01c.33-2.33-.9-3.09-2.37-3.09Zm-30.56,.28h-2.13l-3.46,24.63h2.13c1.72,0,3.53-.76,3.97-3.9l2.38-16.88c.42-3.04-1.13-3.85-2.89-3.85Zm0,0h-2.13l-3.46,24.63h2.13c1.72,0,3.53-.76,3.97-3.9l2.38-16.88c.42-3.04-1.13-3.85-2.89-3.85Zm30.56-.28c-1.52,0-2.96,.76-3.29,3.09l-2.67,19.01c-.33,2.33,.95,3.09,2.42,3.09s2.91-.76,3.24-3.09l2.67-19.01c.33-2.33-.9-3.09-2.37-3.09Zm285.54,3.99l-4.51,14.78h4.81l-.3-14.78Zm128.32-3.99c-1.52,0-2.95,.76-3.28,3.09l-2.67,19.01c-.33,2.33,.94,3.09,2.41,3.09s2.92-.76,3.24-3.09l2.68-19.01c.32-2.33-.9-3.09-2.38-3.09Zm45.8,14.07h-2.43l-1.52,10.84h2.28c1.67,0,3.01-.43,3.35-2.86l.73-5.18c.33-2.33-.8-2.8-2.41-2.8Zm1.56-13.79h-2.05l-1.43,10.18h2.24c1.56,0,2.85-.38,3.21-2.91l.61-4.32c.34-2.43-.73-2.95-2.58-2.95Zm132.41-.28c-1.52,0-2.96,.76-3.28,3.09l-2.68,19.01c-.32,2.33,.95,3.09,2.42,3.09s2.91-.76,3.24-3.09l2.67-19.01c.33-2.33-.89-3.09-2.37-3.09Zm0,0c-1.52,0-2.96,.76-3.28,3.09l-2.68,19.01c-.32,2.33,.95,3.09,2.42,3.09s2.91-.76,3.24-3.09l2.67-19.01c.33-2.33-.89-3.09-2.37-3.09Zm-132.41,.28h-2.05l-1.43,10.18h2.24c1.56,0,2.85-.38,3.21-2.91l.61-4.32c.34-2.43-.73-2.95-2.58-2.95Zm-1.56,13.79h-2.43l-1.52,10.84h2.28c1.67,0,3.01-.43,3.35-2.86l.73-5.18c.33-2.33-.8-2.8-2.41-2.8Zm-45.8-14.07c-1.52,0-2.95,.76-3.28,3.09l-2.67,19.01c-.33,2.33,.94,3.09,2.41,3.09s2.92-.76,3.24-3.09l2.68-19.01c.32-2.33-.9-3.09-2.38-3.09Zm-128.32,3.99l-4.51,14.78h4.81l-.3-14.78Zm-285.54-3.99c-1.52,0-2.96,.76-3.29,3.09l-2.67,19.01c-.33,2.33,.95,3.09,2.42,3.09s2.91-.76,3.24-3.09l2.67-19.01c.33-2.33-.9-3.09-2.37-3.09Zm-30.56,.28h-2.13l-3.46,24.63h2.13c1.72,0,3.53-.76,3.97-3.9l2.38-16.88c.42-3.04-1.13-3.85-2.89-3.85Zm0,0h-2.13l-3.46,24.63h2.13c1.72,0,3.53-.76,3.97-3.9l2.38-16.88c.42-3.04-1.13-3.85-2.89-3.85Zm30.56-.28c-1.52,0-2.96,.76-3.29,3.09l-2.67,19.01c-.33,2.33,.95,3.09,2.42,3.09s2.91-.76,3.24-3.09l2.67-19.01c.33-2.33-.9-3.09-2.37-3.09Zm285.54,3.99l-4.51,14.78h4.81l-.3-14.78Zm128.32-3.99c-1.52,0-2.95,.76-3.28,3.09l-2.67,19.01c-.33,2.33,.94,3.09,2.41,3.09s2.92-.76,3.24-3.09l2.68-19.01c.32-2.33-.9-3.09-2.38-3.09Zm45.8,14.07h-2.43l-1.52,10.84h2.28c1.67,0,3.01-.43,3.35-2.86l.73-5.18c.33-2.33-.8-2.8-2.41-2.8Zm1.56-13.79h-2.05l-1.43,10.18h2.24c1.56,0,2.85-.38,3.21-2.91l.61-4.32c.34-2.43-.73-2.95-2.58-2.95Zm0,0h-2.05l-1.43,10.18h2.24c1.56,0,2.85-.38,3.21-2.91l.61-4.32c.34-2.43-.73-2.95-2.58-2.95Zm-1.56,13.79h-2.43l-1.52,10.84h2.28c1.67,0,3.01-.43,3.35-2.86l.73-5.18c.33-2.33-.8-2.8-2.41-2.8Zm-45.8-14.07c-1.52,0-2.95,.76-3.28,3.09l-2.67,19.01c-.33,2.33,.94,3.09,2.41,3.09s2.92-.76,3.24-3.09l2.68-19.01c.32-2.33-.9-3.09-2.38-3.09Zm-128.32,3.99l-4.51,14.78h4.81l-.3-14.78Zm-285.54-3.99c-1.52,0-2.96,.76-3.29,3.09l-2.67,19.01c-.33,2.33,.95,3.09,2.42,3.09s2.91-.76,3.24-3.09l2.67-19.01c.33-2.33-.9-3.09-2.37-3.09Zm-30.56,.28h-2.13l-3.46,24.63h2.13c1.72,0,3.53-.76,3.97-3.9l2.38-16.88c.42-3.04-1.13-3.85-2.89-3.85Zm0,0h-2.13l-3.46,24.63h2.13c1.72,0,3.53-.76,3.97-3.9l2.38-16.88c.42-3.04-1.13-3.85-2.89-3.85Zm30.56-.28c-1.52,0-2.96,.76-3.29,3.09l-2.67,19.01c-.33,2.33,.95,3.09,2.42,3.09s2.91-.76,3.24-3.09l2.67-19.01c.33-2.33-.9-3.09-2.37-3.09Zm285.54,3.99l-4.51,14.78h4.81l-.3-14.78Zm128.32-3.99c-1.52,0-2.95,.76-3.28,3.09l-2.67,19.01c-.33,2.33,.94,3.09,2.41,3.09s2.92-.76,3.24-3.09l2.68-19.01c.32-2.33-.9-3.09-2.38-3.09Zm45.8,14.07h-2.43l-1.52,10.84h2.28c1.67,0,3.01-.43,3.35-2.86l.73-5.18c.33-2.33-.8-2.8-2.41-2.8Zm1.56-13.79h-2.05l-1.43,10.18h2.24c1.56,0,2.85-.38,3.21-2.91l.61-4.32c.34-2.43-.73-2.95-2.58-2.95Zm0,0h-2.05l-1.43,10.18h2.24c1.56,0,2.85-.38,3.21-2.91l.61-4.32c.34-2.43-.73-2.95-2.58-2.95Zm-1.56,13.79h-2.43l-1.52,10.84h2.28c1.67,0,3.01-.43,3.35-2.86l.73-5.18c.33-2.33-.8-2.8-2.41-2.8Zm-45.8-14.07c-1.52,0-2.95,.76-3.28,3.09l-2.67,19.01c-.33,2.33,.94,3.09,2.41,3.09s2.92-.76,3.24-3.09l2.68-19.01c.32-2.33-.9-3.09-2.38-3.09Zm-128.32,3.99l-4.51,14.78h4.81l-.3-14.78Zm-285.54-3.99c-1.52,0-2.96,.76-3.29,3.09l-2.67,19.01c-.33,2.33,.95,3.09,2.42,3.09s2.91-.76,3.24-3.09l2.67-19.01c.33-2.33-.9-3.09-2.37-3.09Zm-30.56,.28h-2.13l-3.46,24.63h2.13c1.72,0,3.53-.76,3.97-3.9l2.38-16.88c.42-3.04-1.13-3.85-2.89-3.85Zm0,0h-2.13l-3.46,24.63h2.13c1.72,0,3.53-.76,3.97-3.9l2.38-16.88c.42-3.04-1.13-3.85-2.89-3.85Zm30.56-.28c-1.52,0-2.96,.76-3.29,3.09l-2.67,19.01c-.33,2.33,.95,3.09,2.42,3.09s2.91-.76,3.24-3.09l2.67-19.01c.33-2.33-.9-3.09-2.37-3.09Zm285.54,3.99l-4.51,14.78h4.81l-.3-14.78Zm128.32-3.99c-1.52,0-2.95,.76-3.28,3.09l-2.67,19.01c-.33,2.33,.94,3.09,2.41,3.09s2.92-.76,3.24-3.09l2.68-19.01c.32-2.33-.9-3.09-2.38-3.09Zm0,0c-1.52,0-2.95,.76-3.28,3.09l-2.67,19.01c-.33,2.33,.94,3.09,2.41,3.09s2.92-.76,3.24-3.09l2.68-19.01c.32-2.33-.9-3.09-2.38-3.09Zm-128.32,3.99l-4.51,14.78h4.81l-.3-14.78Zm-285.54-3.99c-1.52,0-2.96,.76-3.29,3.09l-2.67,19.01c-.33,2.33,.95,3.09,2.42,3.09s2.91-.76,3.24-3.09l2.67-19.01c.33-2.33-.9-3.09-2.37-3.09Zm-30.56,.28h-2.13l-3.46,24.63h2.13c1.72,0,3.53-.76,3.97-3.9l2.38-16.88c.42-3.04-1.13-3.85-2.89-3.85Zm0,0h-2.13l-3.46,24.63h2.13c1.72,0,3.53-.76,3.97-3.9l2.38-16.88c.42-3.04-1.13-3.85-2.89-3.85Zm30.56-.28c-1.52,0-2.96,.76-3.29,3.09l-2.67,19.01c-.33,2.33,.95,3.09,2.42,3.09s2.91-.76,3.24-3.09l2.67-19.01c.33-2.33-.9-3.09-2.37-3.09Zm285.54,3.99l-4.51,14.78h4.81l-.3-14.78Zm128.32-3.99c-1.52,0-2.95,.76-3.28,3.09l-2.67,19.01c-.33,2.33,.94,3.09,2.41,3.09s2.92-.76,3.24-3.09l2.68-19.01c.32-2.33-.9-3.09-2.38-3.09Zm0,0c-1.52,0-2.95,.76-3.28,3.09l-2.67,19.01c-.33,2.33,.94,3.09,2.41,3.09s2.92-.76,3.24-3.09l2.68-19.01c.32-2.33-.9-3.09-2.38-3.09Zm-128.32,3.99l-4.51,14.78h4.81l-.3-14.78Zm-285.54-3.99c-1.52,0-2.96,.76-3.29,3.09l-2.67,19.01c-.33,2.33,.95,3.09,2.42,3.09s2.91-.76,3.24-3.09l2.67-19.01c.33-2.33-.9-3.09-2.37-3.09Zm-30.56,.28h-2.13l-3.46,24.63h2.13c1.72,0,3.53-.76,3.97-3.9l2.38-16.88c.42-3.04-1.13-3.85-2.89-3.85Zm0,0h-2.13l-3.46,24.63h2.13c1.72,0,3.53-.76,3.97-3.9l2.38-16.88c.42-3.04-1.13-3.85-2.89-3.85Zm30.56-.28c-1.52,0-2.96,.76-3.29,3.09l-2.67,19.01c-.33,2.33,.95,3.09,2.42,3.09s2.91-.76,3.24-3.09l2.67-19.01c.33-2.33-.9-3.09-2.37-3.09Zm285.54,3.99l-4.51,14.78h4.81l-.3-14.78Zm0,0l-4.51,14.78h4.81l-.3-14.78Zm-285.54-3.99c-1.52,0-2.96,.76-3.29,3.09l-2.67,19.01c-.33,2.33,.95,3.09,2.42,3.09s2.91-.76,3.24-3.09l2.67-19.01c.33-2.33-.9-3.09-2.37-3.09Zm-30.56,.28h-2.13l-3.46,24.63h2.13c1.72,0,3.53-.76,3.97-3.9l2.38-16.88c.42-3.04-1.13-3.85-2.89-3.85Zm0,0h-2.13l-3.46,24.63h2.13c1.72,0,3.53-.76,3.97-3.9l2.38-16.88c.42-3.04-1.13-3.85-2.89-3.85Zm30.56-.28c-1.52,0-2.96,.76-3.29,3.09l-2.67,19.01c-.33,2.33,.95,3.09,2.42,3.09s2.91-.76,3.24-3.09l2.67-19.01c.33-2.33-.9-3.09-2.37-3.09Zm285.54,3.99l-4.51,14.78h4.81l-.3-14.78Zm0,0l-4.51,14.78h4.81l-.3-14.78Zm-285.54-3.99c-1.52,0-2.96,.76-3.29,3.09l-2.67,19.01c-.33,2.33,.95,3.09,2.42,3.09s2.91-.76,3.24-3.09l2.67-19.01c.33-2.33-.9-3.09-2.37-3.09Zm-30.56,.28h-2.13l-3.46,24.63h2.13c1.72,0,3.53-.76,3.97-3.9l2.38-16.88c.42-3.04-1.13-3.85-2.89-3.85Zm0,0h-2.13l-3.46,24.63h2.13c1.72,0,3.53-.76,3.97-3.9l2.38-16.88c.42-3.04-1.13-3.85-2.89-3.85Zm30.56-.28c-1.52,0-2.96,.76-3.29,3.09l-2.67,19.01c-.33,2.33,.95,3.09,2.42,3.09s2.91-.76,3.24-3.09l2.67-19.01c.33-2.33-.9-3.09-2.37-3.09Zm0,0c-1.52,0-2.96,.76-3.29,3.09l-2.67,19.01c-.33,2.33,.95,3.09,2.42,3.09s2.91-.76,3.24-3.09l2.67-19.01c.33-2.33-.9-3.09-2.37-3.09Zm-30.56,.28h-2.13l-3.46,24.63h2.13c1.72,0,3.53-.76,3.97-3.9l2.38-16.88c.42-3.04-1.13-3.85-2.89-3.85Zm0,0h-2.13l-3.46,24.63h2.13c1.72,0,3.53-.76,3.97-3.9l2.38-16.88c.42-3.04-1.13-3.85-2.89-3.85Zm30.56-.28c-1.52,0-2.96,.76-3.29,3.09l-2.67,19.01c-.33,2.33,.95,3.09,2.42,3.09s2.91-.76,3.24-3.09l2.67-19.01c.33-2.33-.9-3.09-2.37-3.09Zm0,0c-1.52,0-2.96,.76-3.29,3.09l-2.67,19.01c-.33,2.33,.95,3.09,2.42,3.09s2.91-.76,3.24-3.09l2.67-19.01c.33-2.33-.9-3.09-2.37-3.09Zm-30.56,.28h-2.13l-3.46,24.63h2.13c1.72,0,3.53-.76,3.97-3.9l2.38-16.88c.42-3.04-1.13-3.85-2.89-3.85Zm0,0h-2.13l-3.46,24.63h2.13c1.72,0,3.53-.76,3.97-3.9l2.38-16.88c.42-3.04-1.13-3.85-2.89-3.85Zm30.56-.28c-1.52,0-2.96,.76-3.29,3.09l-2.67,19.01c-.33,2.33,.95,3.09,2.42,3.09s2.91-.76,3.24-3.09l2.67-19.01c.33-2.33-.9-3.09-2.37-3.09Zm0,0c-1.52,0-2.96,.76-3.29,3.09l-2.67,19.01c-.33,2.33,.95,3.09,2.42,3.09s2.91-.76,3.24-3.09l2.67-19.01c.33-2.33-.9-3.09-2.37-3.09Zm-30.56,.28h-2.13l-3.46,24.63h2.13c1.72,0,3.53-.76,3.97-3.9l2.38-16.88c.42-3.04-1.13-3.85-2.89-3.85Zm0,0h-2.13l-3.46,24.63h2.13c1.72,0,3.53-.76,3.97-3.9l2.38-16.88c.42-3.04-1.13-3.85-2.89-3.85Zm30.56-.28c-1.52,0-2.96,.76-3.29,3.09l-2.67,19.01c-.33,2.33,.95,3.09,2.42,3.09s2.91-.76,3.24-3.09l2.67-19.01c.33-2.33-.9-3.09-2.37-3.09Zm0,0c-1.52,0-2.96,.76-3.29,3.09l-2.67,19.01c-.33,2.33,.95,3.09,2.42,3.09s2.91-.76,3.24-3.09l2.67-19.01c.33-2.33-.9-3.09-2.37-3.09Zm-30.56,.28h-2.13l-3.46,24.63h2.13c1.72,0,3.53-.76,3.97-3.9l2.38-16.88c.42-3.04-1.13-3.85-2.89-3.85Zm0,0h-2.13l-3.46,24.63h2.13c1.72,0,3.53-.76,3.97-3.9l2.38-16.88c.42-3.04-1.13-3.85-2.89-3.85Zm0,0h-2.13l-3.46,24.63h2.13c1.72,0,3.53-.76,3.97-3.9l2.38-16.88c.42-3.04-1.13-3.85-2.89-3.85Z"/></g><g><path class="cls-1" d="M19.11,1.32h28.18c17.29,0,27.73,11.27,24.77,32.32l-4.38,31.19c-2.09,14.84-8.96,23.67-18.43,28.19l9.3,40.77h-19.92l-7.01-35.7h-7.7l-5.02,35.7H.5L19.11,1.32Zm14.79,79.29c7.14,0,13.87-2.44,15.91-16.91l4.22-30.06c1.66-11.84-4.52-14.66-11.47-14.66h-7.52l-8.66,61.63h7.52Z"/><path class="cls-1" d="M92.58,1.32h49.42l-2.48,17.66h-31.19l-5.52,39.27h23.3l-2.27,16.16h-23.3l-5.86,41.71h31.19l-2.48,17.66h-49.42L92.58,1.32Z"/><path class="cls-1" d="M166.2,18.98h-17.47l2.48-17.66h53.55l-2.48,17.66h-17.66l-16.13,114.8h-18.41l16.13-114.8Z"/><path class="cls-1" d="M216.97,1.32h28.18c17.29,0,27.73,11.27,24.77,32.32l-4.38,31.19c-2.09,14.84-8.96,23.67-18.43,28.19l9.3,40.77h-19.92l-7.01-35.7h-7.7l-5.02,35.7h-18.41L216.97,1.32Zm14.79,79.29c7.14,0,13.87-2.44,15.91-16.91l4.22-30.06c1.66-11.84-4.52-14.66-11.47-14.66h-7.52l-8.66,61.63h7.52Z"/><path class="cls-1" d="M274.79,104.66l10.38-73.84C287.7,12.78,301.49,.19,318.97,.19s27.73,12.59,25.2,30.63l-10.38,73.84c-2.51,17.85-16.49,30.44-33.78,30.44s-27.73-12.59-25.22-30.44Zm27.7,12.78c5.64,0,11.51-3.01,12.8-12.21l10.56-75.16c1.29-9.21-3.54-12.21-9.37-12.21s-11.7,3.01-12.99,12.21l-10.56,75.16c-1.29,9.21,3.73,12.21,9.56,12.21Z"/><path class="cls-1" d="M377.38,104.66l10.38-73.84c2.56-18.23,16.36-30.81,33.64-30.81s27.38,12.4,25.27,30.06h-18.23c1.29-9.21-3.73-12.21-9.56-12.21s-11.51,3.01-12.8,12.21l-10.56,75.16c-1.37,9.77,4.27,12.4,9.34,12.4,5.82,0,11.7-3,13.02-12.4l2.54-18.04h-11.27l2.24-15.97h29.5l-4.7,33.45c-2.54,18.04-16.3,30.44-33.78,30.44s-27.57-12.4-25.03-30.44Z"/><path class="cls-1" d="M482.88,1.13h19.35l6.16,132.66h-18.41l-.68-25.93h-23.67l-8.15,25.93h-18.41L482.88,1.13Zm6.38,90.94l-1.18-58.44-17.8,58.44h18.98Z"/><path class="cls-1" d="M537.34,1.32h18.04l6.03,88.12L592.39,1.32h18.04l-18.62,132.47h-18.23l10.01-71.21-20.08,55.99h-12.4l-4.4-55.62-9.96,70.84h-18.04L537.34,1.32Z"/><path class="cls-1" d="M629.22,1.32h49.42l-2.48,17.66h-31.19l-5.52,39.27h23.3l-2.27,16.16h-23.3l-5.86,41.71h31.19l-2.48,17.66h-49.42L629.22,1.32Z"/><path class="cls-1" d="M700.2,104.66h18.23c-1.37,9.77,4.22,12.78,10.23,12.78s11.61-3.76,12.59-10.71c.71-5.07-.08-8.83-4.23-16.72l-18.76-34.95c-7.01-12.97-7.08-20.48-6-28.19,2.32-16.53,15.99-26.87,32.52-26.87s26.98,11.27,24.39,29.69h-17.85c1.29-9.21-3.89-12.4-9.16-12.4s-10.62,3.38-11.52,9.77c-.63,4.51,.16,9.58,3.61,15.78l18.79,34.76c6.85,12.78,7.67,20.29,6.35,29.69-2.38,16.91-15.96,28-33.43,28s-28.43-11.65-25.76-30.63Z"/><path class="cls-1" d="M770.09,104.66L784.62,1.32h18.23l-14.63,104.09c-1.35,9.58,4.32,12.03,9.58,12.03s11.48-2.82,12.78-12.03L825.2,1.32h18.23l-14.52,103.34c-2.51,17.85-16.49,30.44-33.59,30.44s-27.73-12.59-25.22-30.44Z"/><path class="cls-1" d="M860.9,1.32h28.18c17.29,0,27.7,11.46,24.8,32.13l-4.78,34.01c-2.91,20.67-16.49,31.75-33.77,31.75h-9.77l-4.86,34.57h-18.41L860.9,1.32Zm14.63,80.42c6.76,0,13.92-2.82,15.59-14.66l4.7-33.45c1.66-11.84-4.52-14.66-11.47-14.66h-7.52l-8.82,62.76h7.52Z"/><path class="cls-1" d="M933.81,1.32h28.18c17.29,0,27.7,11.46,24.8,32.13l-4.78,34.01c-2.91,20.67-16.49,31.75-33.77,31.75h-9.77l-4.86,34.57h-18.41L933.81,1.32Zm14.63,80.42c6.76,0,13.92-2.82,15.59-14.66l4.7-33.45c1.66-11.84-4.52-14.66-11.47-14.66h-7.52l-8.82,62.76h7.52Z"/><path class="cls-1" d="M1006.71,1.32h18.41l-16.13,114.8h28.18l-2.48,17.66h-46.6L1006.71,1.32Z"/><path class="cls-1" d="M1056.27,85.87l-12.36-84.55h18.79l6.89,55.24,22.61-55.24h18.79l-36.5,84.55-6.73,47.91h-18.22l6.73-47.91Z"/></g></svg>